<?xml version="1.0" encoding="UTF-8" standalone="no"?>
<!-- Created with Inkscape (http://www.inkscape.org/) -->

<svg
   width="512"
   height="512"
   viewBox="0 0 512 512"
   version="1.1"
   id="svg1"
   inkscape:export-batch-path="D:\Desktop\New folder"
   inkscape:export-batch-name="batch"
   inkscape:version="1.4 (86a8ad7, 2024-10-11)"
   sodipodi:docname="gearbox.svg"
   inkscape:export-filename="..\..\.editoricon.png"
   inkscape:export-xdpi="23.999983"
   inkscape:export-ydpi="23.999983"
   xmlns:inkscape="http://www.inkscape.org/namespaces/inkscape"
   xmlns:sodipodi="http://sodipodi.sourceforge.net/DTD/sodipodi-0.dtd"
   xmlns="http://www.w3.org/2000/svg"
   xmlns:svg="http://www.w3.org/2000/svg">
  <sodipodi:namedview
     id="namedview1"
     pagecolor="#ffffff"
     bordercolor="#000000"
     borderopacity="0.25"
     inkscape:showpageshadow="2"
     inkscape:pageopacity="0.0"
     inkscape:pagecheckerboard="0"
     inkscape:deskcolor="#d1d1d1"
     inkscape:document-units="px"
     inkscape:zoom="0.35355339"
     inkscape:cx="15.556349"
     inkscape:cy="295.57063"
     inkscape:window-width="1600"
     inkscape:window-height="829"
     inkscape:window-x="-8"
     inkscape:window-y="-8"
     inkscape:window-maximized="1"
     inkscape:current-layer="g1" />
  <defs
     id="defs1" />
  <g
     inkscape:label="Layer 1"
     inkscape:groupmode="layer"
     id="layer1">
    <g
       id="g1"
       transform="translate(41.9998,50.999985)">
      <path
         d="m 96.0024,156.02148 c -38.7954,13.60899 -70.8498,29.20533 -97.5156,45.12891 -0.057,3.20188 -0.058,6.41831 0.025,9.66602 0.057,2.40062 0.2221,4.75954 0.3593,7.10742 L -42,240.40234 a 258.42773,258.43169 0.00858885 0 0 15.7403,60.02149 l 46.6172,-0.59766 a 207.61318,207.61636 0 0 0 13.7382,23.99024 L 9.9766,363.6875 a 258.68616,258.69012 0 0 0 43.7012,44.03513 l 40.0801,-23.83005 a 210.94402,210.94726 0 0 0 23.8242,13.99025 l -0.9629,46.5625 a 255.55632,255.56023 0 0 0 59.914,16.25 l 22.7637,-40.6231 c 6.7835,0.4069 13.6163,0.6341 20.5117,0.4532 2.3917,-0.067 4.721,-0.2253 7.1094,-0.3985 l 22.4785,40.8731 a 258.06402,258.06797 0 0 0 59.9825,-15.7324 l -0.504,-40.7227 C 177.9621,364.01287 122.8924,310.35727 101.4223,265.23437 A 128,128 0 0 1 86.0004,205 128,128 0 0 1 96.0024,156.02148 Z"
         style="display:inline;fill:#333333;stroke-width:0.957148"
         id="path26" />
      <path
         d="M 96.0024,156.02148 A 128,128 0 0 0 86.0004,205 a 128,128 0 0 0 15.4219,60.23437 c 21.4701,45.1229 76.5398,98.7785 207.4531,139.31056 l 0.504,40.7227 a 258.06402,258.06797 0 0 1 -59.9825,15.7324 l -22.4785,-40.8731 c -2.3884,0.1732 -4.7177,0.331 -7.1094,0.3985 -6.8954,0.1809 -13.7282,-0.046 -20.5117,-0.4532 l -22.7637,40.6231 a 255.55632,255.56023 0 0 1 -59.914,-16.25 l 0.9629,-46.5625 A 210.94402,210.94726 0 0 1 93.7583,383.89258 L 53.6782,407.72263 A 258.68616,258.69012 0 0 1 9.977,363.6875 L 34.0961,323.81641 A 207.61318,207.61636 0 0 1 20.3579,299.82617 l -46.6172,0.59766 a 258.42773,258.43169 0.00858885 0 1 -15.7403,-60.02149 l 40.8711,-22.47851 c -0.1372,-2.34788 -0.3023,-4.7068 -0.3593,-7.10742 -0.083,-3.24771 -0.082,-6.46414 -0.025,-9.66602 26.6658,-15.92358 58.7202,-31.51992 97.5156,-45.12891 z"
         style="display:inline;fill:#707070;fill-opacity:1;stroke-width:0.957148"
         id="path25" />
      <path
         d="M 374.2915,2.31641 342.2778,21.31445 C 381.7223,179.74573 347.1364,253.93 311.229,288.16211 a 128,128 0 0 1 -80.6934,43.6543 c 30.7025,26.6225 59.8559,46.67438 86.7148,61.98046 a 215.5383,215.5416 0 0 0 15.5489,-8.89453 l 39.7851,24.10349 a 258.42773,258.43169 0.00858885 0 0 44.0723,-43.67966 l -23.7734,-40.08594 a 211.36517,211.36841 0 0 0 13.9921,-23.85351 l 46.5528,0.95312 a 256.67616,256.68009 0 0 0 16.2383,-59.83789 l -40.6309,-22.82422 c 0.4052,-6.75495 0.6258,-13.60715 0.4551,-20.51171 -0.049,-2.3714 -0.2351,-4.73063 -0.3926,-7.06055 l 40.9023,-22.47852 a 259.05944,259.06341 0 0 0 -15.7207,-60.02929 l -46.6738,0.58593 a 226.11469,226.11816 0 0 0 -13.7305,-24 L 417.9731,46.34961 A 260.41858,260.42257 0 0 0 374.2915,2.31641 Z"
         style="display:inline;fill:#6a6a6a;fill-opacity:1;stroke-width:0.957148"
         id="path24" />
      <path
         d="m 178.5942,-51 a 255.8626,255.86651 0 0 0 -59.9805,15.71484 l 0.5489,46.66211 A 211.3556,211.35883 0 0 0 95.1547,25.09766 L 55.311,0.99805 A 261.19387,261.19787 0 0 0 11.2602,44.66016 l 23.8184,40.10937 a 218.82129,218.82464 0 0 0 -13.9629,23.85352 l -46.543,-0.96094 a 257.83431,257.83826 0 0 0 -16.2773,59.86523 l 36.8144,20.62891 C 135.7854,57.23367 224.6115,67.29802 268.6645,89.26172 a 128,128 0 0 1 0.1934,0.0937 c 1.0053,0.50347 2.0376,0.99379 2.9961,1.50781 a 128,128 0 0 1 46.0839,39.48828 c 7.3401,-40.6693 9.8705,-76.73467 9.3672,-108.29687 A 228.23954,228.24304 0 0 0 310.352,12.125 l 1,-46.55078 a 254.86717,254.87107 0 0 0 -59.8945,-16.25977 l -22.7617,40.60547 c -6.774,-0.40633 -13.6191,-0.61601 -20.5157,-0.41601 -2.3792,0.0203 -4.7295,0.20607 -7.1054,0.33203 z"
         style="display:inline;fill:#828282;fill-opacity:1;stroke-width:0.957148"
         id="path23" />
      <circle
         style="fill:#2d7cee;fill-opacity:1;stroke-width:0.543842"
         id="path17-4"
         cx="6.3642263"
         cy="296.27789"
         r="96"
         transform="rotate(-45)" />
    </g>
  </g>
</svg>
